<svg width="48" height="44" viewBox="0 0 48 44" fill="none" xmlns="http://www.w3.org/2000/svg">
<path d="M41.336 5.8374H6.66403C2.98378 5.8374 0 8.57253 0 11.9461V32.0541C0 35.4277 2.98378 38.1628 6.66403 38.1628H41.336C45.0161 38.1628 48 35.4277 48 32.0541V11.9461C48 8.57253 45.0161 5.8374 41.336 5.8374ZM16.7031 27.6479L7.37119 34.9457C6.71297 35.4607 5.72344 35.3891 5.16178 34.7851C4.60003 34.1817 4.67812 33.2747 5.33709 32.7598L14.669 25.462C15.3271 24.9471 16.3165 25.0187 16.8783 25.6227C17.44 26.226 17.3619 27.1331 16.7031 27.6479ZM24 24.8735C22.7518 24.8707 21.5419 24.4905 20.5959 23.7406L20.5967 23.7413L20.5937 23.7392C20.5944 23.7399 20.5953 23.7399 20.5959 23.7406L6.27769 12.3488C5.62331 11.8282 5.55366 10.9212 6.12075 10.3221C6.68859 9.72229 7.67813 9.65844 8.33156 10.1783L22.6538 21.5729C22.9599 21.8226 23.4643 22.0029 24 22.0001C24.5349 22.0016 25.0308 21.8262 25.3538 21.568L25.3607 21.5624L39.6683 10.1784C40.3219 9.65853 41.3114 9.72238 41.8792 10.3222C42.4463 10.9212 42.3767 11.8283 41.7223 12.3489L27.4001 23.7441C26.4573 24.4862 25.2489 24.872 24 24.8735ZM42.8389 34.7851C42.2771 35.3891 41.2876 35.4607 40.6296 34.9457L31.2977 27.6479C30.6388 27.133 30.5607 26.226 31.1225 25.6227C31.6841 25.0187 32.6737 24.9472 33.3318 25.462L42.6637 32.7598C43.3225 33.2747 43.4006 34.1817 42.8389 34.7851Z" fill="white"/>
</svg>
