<svg width="44" height="44" viewBox="0 0 44 44" fill="none" xmlns="http://www.w3.org/2000/svg">
<g clip-path="url(#clip0_316_128)">
<path fill-rule="evenodd" clip-rule="evenodd" d="M41.7456 14.6153C41.7456 11.6355 40.7459 9.19845 39.0861 7.28933C39.3525 6.59755 40.2399 3.82067 38.8294 0.0635466C38.8294 0.0635466 36.6587 -0.669787 31.7161 2.86245C29.6505 2.25621 27.4359 1.95312 25.2359 1.94333C23.0359 1.95312 20.8212 2.25621 18.7581 2.86245C13.813 -0.669787 11.6399 0.0635466 11.6399 0.0635466C10.2294 3.82067 11.1192 6.59755 11.3856 7.28933C9.72828 9.19845 8.72119 11.6355 8.72119 14.6153C8.72119 25.0775 14.7639 27.4193 20.5107 28.1087C20.5107 28.1087 16.3796 30.668 16.3796 34.9702C14.9056 35.6693 8.6674 37.8107 6.3574 33.638C6.3574 33.638 4.99095 31.0175 2.39252 30.8245C2.39252 30.8245 -0.135049 30.7902 2.21407 32.4842C2.21407 32.4842 3.91052 33.3251 5.08874 36.4785C5.08874 36.4785 6.39895 43.1225 16.2965 40.1378C16.3967 40.1891 16.3332 43.3522 16.3332 44H34.1434C34.1434 44 34.1727 37.6518 34.1727 35.6327C34.1727 30.668 30.8581 28.93 29.9267 28.0867C35.6932 27.412 41.7456 25.1045 41.7456 14.6153Z" fill="black"/>
</g>
<defs>
<clipPath id="clip0_316_128">
<rect width="44" height="44" fill="black"/>
</clipPath>
</defs>
</svg>
