<svg width="44" height="44" viewBox="0 0 44 44" fill="none" xmlns="http://www.w3.org/2000/svg">
<path fill-rule="evenodd" clip-rule="evenodd" d="M22 33C28.0751 33 33 28.0751 33 22C33 15.9249 28.0751 11 22 11C15.9249 11 11 15.9249 11 22C11 28.0751 15.9249 33 22 33ZM22 29.3333C26.05 29.3333 29.3333 26.05 29.3333 22C29.3333 17.9499 26.05 14.6667 22 14.6667C17.9499 14.6667 14.6667 17.9499 14.6667 22C14.6667 26.05 17.9499 29.3333 22 29.3333Z" fill="#222222"/>
<path d="M33.0001 9.16675C31.9875 9.16675 31.1667 9.98757 31.1667 11.0001C31.1667 12.0126 31.9875 12.8334 33.0001 12.8334C34.0126 12.8334 34.8334 12.0126 34.8334 11.0001C34.8334 9.98757 34.0126 9.16675 33.0001 9.16675Z" fill="#222222"/>
<path fill-rule="evenodd" clip-rule="evenodd" d="M3.03218 7.83936C1.83325 10.1924 1.83325 13.2727 1.83325 19.4333V24.5666C1.83325 30.7271 1.83325 33.8075 3.03218 36.1604C4.08679 38.2302 5.76957 39.9131 7.83936 40.9676C10.1924 42.1666 13.2727 42.1666 19.4333 42.1666H24.5666C30.7271 42.1666 33.8075 42.1666 36.1604 40.9676C38.2302 39.9131 39.9131 38.2302 40.9676 36.1604C42.1666 33.8075 42.1666 30.7271 42.1666 24.5666V19.4333C42.1666 13.2727 42.1666 10.1924 40.9676 7.83936C39.9131 5.76957 38.2302 4.08679 36.1604 3.03218C33.8075 1.83325 30.7271 1.83325 24.5666 1.83325H19.4333C13.2727 1.83325 10.1924 1.83325 7.83936 3.03218C5.76957 4.08679 4.08679 5.76957 3.03218 7.83936ZM24.5666 5.49992H19.4333C16.2925 5.49992 14.1574 5.50278 12.5071 5.6376C10.8995 5.76894 10.0775 6.007 9.50399 6.2992C8.12413 7.00228 7.00228 8.12413 6.2992 9.50399C6.007 10.0775 5.76894 10.8995 5.6376 12.5071C5.50278 14.1574 5.49992 16.2925 5.49992 19.4333V24.5666C5.49992 27.7075 5.50278 29.8424 5.6376 31.4927C5.76894 33.1004 6.007 33.9225 6.2992 34.4959C7.00228 35.8757 8.12413 36.9975 9.50399 37.7006C10.0775 37.9928 10.8995 38.231 12.5071 38.3622C14.1574 38.497 16.2925 38.4999 19.4333 38.4999H24.5666C27.7075 38.4999 29.8424 38.497 31.4927 38.3622C33.1004 38.231 33.9225 37.9928 34.4959 37.7006C35.8757 36.9975 36.9975 35.8757 37.7006 34.4959C37.9928 33.9225 38.231 33.1004 38.3622 31.4927C38.497 29.8424 38.4999 27.7075 38.4999 24.5666V19.4333C38.4999 16.2925 38.497 14.1574 38.3622 12.5071C38.231 10.8995 37.9928 10.0775 37.7006 9.50399C36.9975 8.12413 35.8757 7.00228 34.4959 6.2992C33.9225 6.007 33.1004 5.76894 31.4927 5.6376C29.8424 5.50278 27.7075 5.49992 24.5666 5.49992Z" fill="#222222"/>
</svg>
