<svg width="44" height="44" viewBox="0 0 44 44" fill="none" xmlns="http://www.w3.org/2000/svg">
<g clip-path="url(#clip0_316_126)">
<path fill-rule="evenodd" clip-rule="evenodd" d="M10.9595 13.7672V44H0.000825V13.7672H10.9595ZM27.4791 13.7113V15.4928C29.0788 14.4603 30.9236 13.86 33.7211 13.86C42.8322 13.86 43.9997 20.9336 43.9997 27.0958V43.9992H32.986V27.9384C32.986 25.2372 32.0195 24.7251 30.2325 24.7251C28.5336 24.7251 27.4791 25.2648 27.4791 27.9384V43.9992H16.4653V13.7113H27.4791ZM5.47935 0C8.50263 0 10.9587 2.45882 10.9587 5.47935C10.9587 8.49988 8.50263 10.9587 5.47933 10.9587C2.45884 10.9587 0 8.49988 0 5.47933C0 2.45884 2.45882 0 5.47935 0Z" fill="white"/>
</g>
<defs>
<clipPath id="clip0_316_126">
<rect width="44" height="44" fill="white"/>
</clipPath>
</defs>
</svg>
