<svg width="63" height="66" viewBox="0 0 63 66" fill="none" xmlns="http://www.w3.org/2000/svg">
<circle cx="30.6245" cy="31.3054" r="20.4165" fill="#FFC700"/>
<path d="M53.9521 20.6969C53.3071 19.3351 52.2023 17.3609 50.508 15.4075C49.9755 14.7935 50.279 13.7913 51.0775 13.6398L60.5214 11.8479C61.4112 11.6791 62.0453 12.6813 61.5056 13.4086C59.6179 15.9525 57.2353 19.1036 55.8435 20.9391C55.355 21.5832 54.2981 21.4275 53.9521 20.6969Z" fill="#FFC700"/>
<path d="M19.9839 9.44545C18.5953 10.0304 16.5748 11.048 14.5493 12.6555C13.9127 13.1608 12.9247 12.8138 12.8082 12.0095L11.4299 2.49637C11.3001 1.60003 12.329 1.01032 13.0321 1.58124C15.4912 3.57805 18.5354 6.09579 20.3084 7.56639C20.9306 8.08249 20.7289 9.13161 19.9839 9.44545Z" fill="#FFC700"/>
<path d="M37.78 55.1267C39.1973 54.6152 41.2683 53.7048 43.3752 52.2055C44.0373 51.7343 45.0058 52.1325 45.0801 52.9418L45.9586 62.514C46.0413 63.4159 44.983 63.9509 44.3107 63.344C41.9595 61.2212 39.0512 58.5476 37.3576 56.9862C36.7633 56.4383 37.0196 55.4012 37.78 55.1267Z" fill="#FFC700"/>
<path d="M54.3037 39.4991C54.4377 39.1495 54.57 38.755 54.6856 38.3236C54.8958 37.5386 55.8822 37.1441 56.5024 37.6692L58.4677 39.3333C59.1589 39.9186 58.7779 41.0378 57.8729 41.0721C57.012 41.1048 56.1297 41.1353 55.3831 41.1601C54.5752 41.1869 54.0145 40.254 54.3037 39.4991Z" fill="#FFC700"/>
<path d="M36.8254 7.59614C36.4646 7.49633 36.0593 7.40238 35.6188 7.3287C34.8173 7.19465 34.33 6.25063 34.7933 5.58294L36.2614 3.46719C36.7777 2.72309 37.9283 2.99507 38.0492 3.89266C38.1642 4.74647 38.2791 5.6217 38.3753 6.36251C38.4795 7.16418 37.6046 7.81167 36.8254 7.59614Z" fill="#FFC700"/>
<path d="M22.0927 54.4619C22.4186 54.646 22.7892 54.8352 23.1988 55.0133C23.9441 55.3372 24.1885 56.3711 23.5775 56.9069L21.6411 58.6046C20.9601 59.2017 19.9095 58.6595 20.0093 57.7593C20.1043 56.903 20.2045 56.026 20.2904 55.2839C20.3832 54.4808 21.3888 54.0642 22.0927 54.4619Z" fill="#FFC700"/>
<path d="M6.08364 24.9465C5.93759 25.2912 5.79153 25.6808 5.661 26.1079C5.42347 26.8851 4.42391 27.245 3.82241 26.6985L1.91639 24.9668C1.24604 24.3578 1.66588 23.2526 2.57158 23.2499C3.43309 23.2473 4.31583 23.2476 5.06287 23.2488C5.87127 23.2502 6.39903 24.2022 6.08364 24.9465Z" fill="#FFC700"/>
<path d="M8.39003 42.5921C9.13989 43.8991 10.3961 45.7805 12.2385 47.595C12.8175 48.1652 12.5935 49.1882 11.8094 49.4019L2.53521 51.9292C1.66138 52.1673 0.950686 51.218 1.43166 50.4505C3.11389 47.7664 5.24188 44.438 6.48544 42.499C6.92186 41.8186 7.98773 41.8909 8.39003 42.5921Z" fill="#FFC700"/>
</svg>
