<svg width="344" height="359" viewBox="0 0 344 359" fill="none" xmlns="http://www.w3.org/2000/svg">
<path d="M209 329C139 339 45.0002 339 27.0002 265C27.0002 165 57.0003 177 103 133C152.225 85.9156 139 29 221 25C303 21 313 143 317 197C321 251 274.337 319.666 209 329Z" fill="#FFE68D"/>
<path d="M180.06 333.271C109.431 329.871 17.1229 312.118 13.4225 236.05C32.3085 137.85 59.5024 155.3 112.984 120.779C170.215 83.8384 167.978 25.4495 249.258 37.008C330.537 48.5665 317.317 170.26 311.046 224.043C304.776 277.827 245.984 336.445 180.06 333.271Z" fill="#FFC700"/>
</svg>
