<svg width="373" height="269" viewBox="0 0 373 269" fill="none" xmlns="http://www.w3.org/2000/svg">
<g clip-path="url(#clip0_482_113)">
<path d="M53.8403 231.287V231.984C53.8413 233.138 54.3001 234.245 55.1161 235.061C55.932 235.877 57.0383 236.336 58.1922 236.337H95.0958C96.2499 236.337 97.3565 235.878 98.1726 235.062C98.9886 234.245 99.4472 233.138 99.4477 231.984V231.287C99.4498 230.268 99.0922 229.281 98.4379 228.501C98.2202 228.241 97.9737 228.008 97.7034 227.804H78.5622C78.3314 227.804 78.1101 227.712 77.9469 227.549C77.7836 227.386 77.6919 227.164 77.6918 226.933H58.1922C57.0385 226.935 55.9325 227.394 55.1167 228.21C54.3009 229.026 53.8419 230.133 53.8403 231.287Z" fill="#3F3D56"/>
<path d="M74.2087 268.207H78.7346V236.164H74.2087V268.207Z" fill="#3F3D56"/>
<path d="M61.3271 268.048C61.3271 268.537 68.1855 268.237 76.6456 268.237C85.1058 268.237 91.9641 268.537 91.9641 268.048C91.9641 267.558 85.1058 263.679 76.6456 263.679C68.1855 263.679 61.3271 267.558 61.3271 268.048Z" fill="#3F3D56"/>
<path d="M60.9426 230.552L76.3864 233.018L94.3299 235.884L100.551 236.877C101.149 236.971 101.759 236.825 102.248 236.469C102.738 236.114 103.067 235.579 103.162 234.982L103.444 233.22L103.706 231.579L103.921 230.228C103.97 229.926 103.957 229.617 103.883 229.32C103.809 229.023 103.675 228.744 103.49 228.501C103.271 228.201 102.98 227.961 102.644 227.804H78.5623C78.3315 227.804 78.1101 227.712 77.9469 227.549C77.7837 227.386 77.692 227.164 77.6919 226.933V226.247C77.692 226.016 77.7837 225.795 77.9469 225.632C78.1101 225.468 78.3315 225.376 78.5623 225.376H88.025L83.6626 224.68L70.252 222.538L62.4222 221.288C61.8235 221.193 61.2117 221.339 60.7208 221.695C60.23 222.051 59.9004 222.587 59.8041 223.186L59.0451 227.936C58.9525 228.535 59.0999 229.145 59.4553 229.635C59.8107 230.125 60.3453 230.455 60.9426 230.552Z" fill="#FFC700"/>
<path d="M94.3298 229.89V256.433C94.3307 257.038 94.5712 257.618 94.9987 258.045C95.4261 258.473 96.0056 258.714 96.6101 258.715H101.425C102.03 258.714 102.609 258.473 103.037 258.045C103.464 257.618 103.705 257.038 103.706 256.433V229.89C103.706 229.387 103.538 228.897 103.229 228.501C102.999 228.196 102.694 227.956 102.344 227.804H95.6876C95.339 227.957 95.0357 228.196 94.8068 228.501C94.4974 228.898 94.3295 229.387 94.3298 229.89Z" fill="#FFC700"/>
<path d="M79.8188 184.965C79.8433 185.201 79.9044 185.433 79.9999 185.651C80.1449 185.984 80.3682 186.276 80.6509 186.504L80.6615 186.511L94.3994 197.66L94.6012 197.82L97.4457 200.129L98.3055 200.826H113.182L112.325 200.129L100.568 190.586L92.6899 184.191L86.5591 179.218C86.2003 178.925 85.7603 178.75 85.2988 178.716C85.2969 178.714 85.2945 178.713 85.2918 178.713C85.1549 178.703 85.0174 178.705 84.8809 178.72C84.6766 178.74 84.4762 178.79 84.2856 178.866C84.1553 178.913 84.0313 178.976 83.9165 179.054C83.7001 179.186 83.5081 179.355 83.3491 179.552L80.362 183.234L80.3167 183.293C80.1274 183.525 79.9859 183.792 79.9004 184.079C79.8149 184.366 79.7872 184.667 79.8188 184.965Z" fill="#FFC700"/>
<path d="M80.6616 186.511C80.9205 187.159 81.297 187.753 81.7722 188.263L90.918 198.092C91.1391 198.295 91.398 198.452 91.68 198.555C91.962 198.658 92.2614 198.704 92.5613 198.69C92.8611 198.677 93.1553 198.605 93.4271 198.478C93.6989 198.35 93.943 198.171 94.1452 197.949L94.3995 197.66L94.5109 197.534L98.4624 193.101L100.161 191.192C100.274 191.074 100.372 190.943 100.454 190.802C100.495 190.732 100.534 190.659 100.569 190.586C100.711 190.26 100.777 189.907 100.76 189.552C100.748 189.25 100.676 188.953 100.548 188.68C100.419 188.406 100.237 188.161 100.012 187.96L89.407 179.852C88.2369 178.954 86.7637 178.547 85.2989 178.716C85.2971 178.714 85.2946 178.713 85.2919 178.713C84.9666 178.754 84.6452 178.821 84.331 178.915C84.1917 178.953 84.0561 179.002 83.9167 179.054C83.0176 179.393 82.2205 179.956 81.6015 180.691C80.9282 181.483 80.4846 182.444 80.3189 183.47C80.1532 184.496 80.2717 185.548 80.6616 186.511Z" fill="#2F2E41"/>
<path d="M76.3188 170.622C85.9561 170.622 93.7686 162.806 93.7686 153.165C93.7686 143.524 85.9561 135.708 76.3188 135.708C66.6815 135.708 58.8689 143.524 58.8689 153.165C58.8689 162.806 66.6815 170.622 76.3188 170.622Z" fill="#FFC700"/>
<path d="M71.6723 228.145L78.1443 229.176L78.2906 229.201L88.1292 230.771L94.3297 231.764L103.444 233.22L103.705 233.262L105.06 233.478L111.281 234.47C111.878 234.564 112.489 234.418 112.978 234.063C113.468 233.708 113.796 233.173 113.892 232.576L114.435 229.176L114.651 227.825C114.651 227.818 114.655 227.811 114.655 227.804H78.5621C78.3313 227.804 78.11 227.712 77.9468 227.549C77.7836 227.386 77.6918 227.164 77.6917 226.933V226.247C77.6918 226.016 77.7836 225.795 77.9468 225.632C78.11 225.468 78.3313 225.376 78.5621 225.376H89.9673V221.57L89.2711 221.458L85.8314 220.908L73.1485 218.884C72.5507 218.789 71.9396 218.935 71.4494 219.291C70.9592 219.646 70.6299 220.181 70.5338 220.779L70.2518 222.538L69.7748 225.533C69.6813 226.131 69.8285 226.742 70.1842 227.231C70.5398 227.721 71.0749 228.05 71.6723 228.145Z" fill="#FFC700"/>
<path d="M52.5693 212.723C52.5693 226.954 54.0143 235.466 76.2957 233.028C76.327 233.025 76.3549 233.021 76.3862 233.018C80.3603 232.625 84.2906 231.873 88.1292 230.772C90.124 230.189 92.0628 229.429 93.9224 228.501C94.361 228.278 94.7823 228.044 95.1967 227.804H78.5621C78.3313 227.804 78.1099 227.712 77.9467 227.549C77.7835 227.386 77.6918 227.164 77.6917 226.933V226.247C77.6918 226.016 77.7835 225.795 77.9467 225.632C78.1099 225.468 78.3313 225.377 78.5621 225.377H89.9673V203.379C89.9683 202.702 90.2375 202.053 90.7158 201.575C91.1942 201.096 91.8428 200.827 92.5193 200.826H101.798C101.717 200.596 101.637 200.362 101.55 200.129C100.68 197.72 99.6482 195.371 98.4622 193.101C96.8375 189.947 94.9039 186.963 92.6899 184.191C91.1482 182.26 89.4175 180.488 87.5235 178.901C84.0314 176.017 80.2297 174.234 76.3722 174.234C62.147 174.234 52.5693 198.492 52.5693 212.723Z" fill="#2F2E41"/>
<path d="M75.9522 159.635L75.9341 158.983C77.1472 158.949 78.2167 158.873 79.0204 158.285C79.2482 158.109 79.4355 157.886 79.5695 157.631C79.7035 157.377 79.781 157.096 79.7968 156.808C79.811 156.633 79.7844 156.456 79.7192 156.292C79.654 156.129 79.5519 155.982 79.421 155.864C78.8875 155.413 78.029 155.559 77.4034 155.846L76.8638 156.094L77.8985 148.53L78.5445 148.618L77.6645 155.053C78.0247 154.919 78.4127 154.877 78.793 154.932C79.1734 154.987 79.5339 155.136 79.8419 155.366C80.0491 155.547 80.2116 155.773 80.3168 156.027C80.422 156.282 80.4671 156.557 80.4485 156.831C80.4294 157.218 80.3262 157.595 80.1459 157.937C79.9657 158.279 79.7128 158.578 79.4051 158.812C78.3724 159.567 77.0305 159.605 75.9522 159.635Z" fill="#2F2E41"/>
<path d="M85.2518 149.173H81.7397V149.825H85.2518V149.173Z" fill="#2F2E41"/>
<path d="M74.1661 149.173H70.6541V149.825H74.1661V149.173Z" fill="#2F2E41"/>
<path d="M62.3924 148.368C63.7495 146.325 66.1375 145.458 68.4923 145.248C71.1428 145.01 73.7039 145.522 76.2916 146.018C79.1397 146.565 82.1538 147.077 85.0235 146.385C86.293 146.092 87.4793 145.513 88.4929 144.694C89.5064 143.875 90.3209 142.836 90.8749 141.657C91.9256 139.355 92.152 136.761 91.516 134.312C90.7662 131.711 89.2439 129.399 87.1508 127.683C83.0208 124.15 77.4319 122.562 72.0564 122.711C66.7012 122.85 61.5253 124.67 57.262 127.915C52.9917 131.278 49.9867 135.989 48.7375 141.28C47.4313 146.527 47.8568 152.056 49.9505 157.042C51.1269 159.772 52.8281 162.233 54.1409 164.894C55.3632 167.372 56.3045 170.253 55.544 173.016C55.2096 174.249 54.5674 175.377 53.6777 176.293C52.7879 177.209 51.6799 177.884 50.4578 178.254C49.3387 178.548 48.1546 178.47 47.0834 178.033C46.0123 177.595 45.1121 176.822 44.5183 175.828C43.2887 173.889 43.2593 171.348 45.1054 169.782C45.5709 169.381 46.1131 169.078 46.6991 168.893C47.2851 168.708 47.9026 168.644 48.5141 168.705C49.1255 168.766 49.7182 168.951 50.2561 169.248C50.7939 169.546 51.2657 169.949 51.6427 170.435C52.3917 171.408 52.7269 172.637 52.5758 173.856C52.4848 174.472 53.4272 174.738 53.519 174.116C53.7393 172.827 53.4949 171.502 52.8296 170.376C52.1642 169.251 51.121 168.398 49.8858 167.97C48.6506 167.542 47.3036 167.567 46.0849 168.04C44.8662 168.513 43.8549 169.403 43.2311 170.552C42.1178 172.646 42.7185 175.172 44.1317 176.962C44.8609 177.915 45.8492 178.638 46.9784 179.045C48.1076 179.451 49.3299 179.523 50.499 179.252C53.0715 178.658 55.1759 176.613 56.1656 174.209C57.2674 171.533 56.7625 168.547 55.6885 165.95C54.5275 163.143 52.8033 160.626 51.4399 157.921C50.2053 155.477 49.4197 152.831 49.1205 150.108C48.5216 144.642 49.7618 139.131 52.6449 134.449C55.5835 129.84 60.0688 126.429 65.2951 124.831C70.4835 123.163 76.0847 123.311 81.1778 125.251C86.148 127.21 90.9473 131.48 90.8897 137.214C90.8651 139.663 89.9561 142.161 88.0807 143.795C85.8394 145.748 82.7186 145.915 79.9011 145.61C77.0658 145.303 74.3124 144.475 71.4648 144.264C68.9879 144.08 66.3158 144.271 64.1043 145.502C63.0745 146.076 62.1977 146.89 61.5478 147.874C61.1985 148.4 62.0453 148.891 62.3924 148.368Z" fill="#2F2E41"/>
<path d="M65.169 191.094C65.1968 191.158 65.2281 191.219 65.2629 191.279C65.2979 191.341 65.3362 191.402 65.3778 191.46L73.0092 202.449L73.6011 203.302L79.8259 212.26L85.8314 220.908L88.2615 224.412C88.3269 224.507 88.4003 224.597 88.481 224.68C88.8567 225.075 89.3621 225.323 89.9048 225.376H89.9674V210.431L89.2711 209.428L81.4623 198.186L73.0754 186.11C72.73 185.614 72.2017 185.274 71.6066 185.167C71.0114 185.059 70.3978 185.192 69.9003 185.536L67.3274 187.322L65.9452 188.284C65.5082 188.588 65.1914 189.035 65.0496 189.549C64.9079 190.062 64.9501 190.609 65.169 191.094Z" fill="#FFC700"/>
<path d="M63.9747 190.826L64.3193 191.519L64.3229 191.523L64.4169 191.707L70.0115 202.818C70.3269 203.334 70.834 203.705 71.4219 203.849C72.0098 203.992 72.6306 203.897 73.1485 203.584L73.5105 203.358L73.601 203.302L80.8147 198.774C81.0721 198.618 81.2962 198.413 81.4739 198.17C81.6515 197.927 81.7794 197.651 81.8499 197.358C81.9205 197.065 81.9324 196.762 81.8849 196.464C81.8375 196.167 81.7316 195.882 81.5735 195.626L73.6498 184.877C72.8731 183.824 71.7575 183.071 70.4908 182.743C69.224 182.416 67.8832 182.535 66.6938 183.08C66.4254 183.201 66.1669 183.343 65.9208 183.505C64.7562 184.275 63.9146 185.446 63.5559 186.795C63.1971 188.145 63.3462 189.579 63.9747 190.826Z" fill="#2F2E41"/>
<path d="M105.06 227.804V254.027C105.06 254.631 105.301 255.211 105.728 255.639C106.156 256.066 106.736 256.307 107.34 256.308H112.155C112.759 256.307 113.339 256.066 113.766 255.639C114.194 255.211 114.434 254.631 114.435 254.027V227.804H105.06Z" fill="#FFC700"/>
<path d="M76.9956 226.247V226.933C76.9961 227.296 77.1218 227.647 77.3515 227.928C77.5812 228.208 77.9007 228.401 78.2559 228.473C78.3046 228.48 78.3534 228.49 78.4021 228.494C78.4543 228.497 78.5065 228.501 78.5623 228.501H132.233C133.094 228.5 133.921 228.158 134.531 227.549C135.14 226.94 135.483 226.113 135.484 225.251V203.379C135.483 202.517 135.14 201.69 134.531 201.081C133.921 200.472 133.094 200.129 132.233 200.129H92.5195C91.6583 200.13 90.8326 200.473 90.2236 201.082C89.6147 201.691 89.2722 202.517 89.2712 203.379V224.68H78.5623C78.1468 224.68 77.7483 224.845 77.4545 225.139C77.1607 225.433 76.9956 225.832 76.9956 226.247Z" fill="white"/>
<path d="M76.9956 226.247V226.933C76.9961 227.296 77.1218 227.647 77.3515 227.928C77.5812 228.208 77.9007 228.401 78.2559 228.473C78.3046 228.48 78.3534 228.49 78.4021 228.494C78.4543 228.497 78.5065 228.501 78.5623 228.501H132.233C133.094 228.5 133.921 228.158 134.531 227.549C135.14 226.94 135.483 226.113 135.484 225.251V203.379C135.483 202.517 135.14 201.69 134.531 201.081C133.921 200.472 133.094 200.129 132.233 200.129H92.5195C91.6583 200.13 90.8326 200.473 90.2236 201.082C89.6147 201.691 89.2722 202.517 89.2712 203.379V224.68H78.5623C78.1468 224.68 77.7483 224.845 77.4545 225.139C77.1607 225.433 76.9956 225.832 76.9956 226.247ZM77.6919 226.933V226.247C77.692 226.016 77.7837 225.795 77.9469 225.632C78.1101 225.468 78.3315 225.377 78.5623 225.377H89.9675V203.379C89.9685 202.702 90.2377 202.053 90.716 201.575C91.1944 201.096 91.8429 200.827 92.5195 200.826H132.233C132.91 200.826 133.559 201.095 134.038 201.574C134.517 202.052 134.787 202.701 134.788 203.379V225.251C134.787 225.928 134.517 226.578 134.038 227.056C133.559 227.535 132.91 227.804 132.233 227.804H78.5623C78.3314 227.804 78.1101 227.712 77.9469 227.549C77.7837 227.386 77.692 227.164 77.6919 226.933Z" fill="#3F3D56"/>
<path d="M112.377 216.993C113.856 216.993 115.055 215.794 115.055 214.315C115.055 212.836 113.856 211.637 112.377 211.637C110.899 211.637 109.7 212.836 109.7 214.315C109.7 215.794 110.899 216.993 112.377 216.993Z" fill="#FFC700"/>
<path d="M89.978 225.049H89.2817V228.184H89.978V225.049Z" fill="#3F3D56"/>
<path d="M372.571 13.766H187.306C187.193 13.766 187.083 13.7208 187.003 13.6404C186.923 13.5599 186.877 13.4508 186.877 13.337C186.877 13.2232 186.923 13.1141 187.003 13.0336C187.083 12.9532 187.193 12.908 187.306 12.908H372.571C372.685 12.908 372.794 12.9532 372.874 13.0336C372.955 13.1141 373 13.2232 373 13.337C373 13.4508 372.955 13.5599 372.874 13.6404C372.794 13.7208 372.685 13.766 372.571 13.766Z" fill="#CACACA"/>
<path d="M203.596 7.75965C205.737 7.75965 207.474 6.02259 207.474 3.87983C207.474 1.73706 205.737 0 203.596 0C201.454 0 199.717 1.73706 199.717 3.87983C199.717 6.02259 201.454 7.75965 203.596 7.75965Z" fill="#3F3D56"/>
<path d="M216.993 7.75965C219.135 7.75965 220.872 6.02259 220.872 3.87983C220.872 1.73706 219.135 0 216.993 0C214.851 0 213.115 1.73706 213.115 3.87983C213.115 6.02259 214.851 7.75965 216.993 7.75965Z" fill="#3F3D56"/>
<path d="M230.391 7.75965C232.533 7.75965 234.269 6.02259 234.269 3.87983C234.269 1.73706 232.533 0 230.391 0C228.249 0 226.513 1.73706 226.513 3.87983C226.513 6.02259 228.249 7.75965 230.391 7.75965Z" fill="#3F3D56"/>
<path d="M222.615 79.9146C218.109 79.9146 213.703 78.5777 209.956 76.0728C206.208 73.5679 203.288 70.0077 201.563 65.8422C199.838 61.6768 199.387 57.0932 200.266 52.6712C201.145 48.2492 203.316 44.1873 206.502 40.9992C209.689 37.8111 213.749 35.6399 218.17 34.7603C222.59 33.8807 227.172 34.3321 231.335 36.0575C235.499 37.7829 239.058 40.7047 241.562 44.4535C244.066 48.2023 245.402 52.6097 245.402 57.1183C245.395 63.1621 242.993 68.9565 238.721 73.2301C234.449 77.5038 228.657 79.9077 222.615 79.9146ZM222.615 35.1803C218.278 35.1803 214.038 36.467 210.432 38.8775C206.826 41.2881 204.015 44.7144 202.355 48.7231C200.696 52.7317 200.261 57.1427 201.107 61.3983C201.954 65.6539 204.042 69.5629 207.109 72.631C210.176 75.6991 214.083 77.7885 218.337 78.635C222.591 79.4815 227 79.047 231.007 77.3866C235.014 75.7261 238.439 72.9142 240.849 69.3065C243.258 65.6988 244.545 61.4573 244.545 57.1183C244.538 51.3021 242.225 45.7259 238.114 41.6131C234.003 37.5004 228.429 35.187 222.615 35.1803Z" fill="#CACACA"/>
<path d="M221.346 194.211C227.198 194.211 231.942 189.464 231.942 183.61C231.942 177.755 227.198 173.009 221.346 173.009C215.493 173.009 210.749 177.755 210.749 183.61C210.749 189.464 215.493 194.211 221.346 194.211Z" fill="#E4E4E4"/>
<path d="M215.46 187.539L215.448 187.143C216.185 187.122 216.835 187.076 217.323 186.719C217.461 186.612 217.575 186.477 217.656 186.322C217.738 186.167 217.785 185.997 217.794 185.822C217.803 185.716 217.787 185.608 217.747 185.509C217.707 185.409 217.646 185.321 217.566 185.249C217.382 185.137 217.17 185.077 216.955 185.075C216.739 185.073 216.527 185.13 216.341 185.238L216.013 185.388L216.641 180.795L217.034 180.849L216.499 184.756C216.718 184.675 216.954 184.65 217.185 184.683C217.416 184.716 217.635 184.807 217.822 184.946C217.947 185.056 218.046 185.194 218.11 185.348C218.174 185.503 218.201 185.67 218.19 185.836C218.178 186.071 218.116 186.3 218.006 186.508C217.897 186.716 217.743 186.897 217.556 187.039C216.929 187.498 216.114 187.52 215.46 187.539Z" fill="#2F2E41"/>
<path d="M221.107 181.186H218.974V181.582H221.107V181.186Z" fill="#2F2E41"/>
<path d="M214.375 181.186H212.242V181.582H214.375V181.186Z" fill="#2F2E41"/>
<path d="M219.751 176.764C217.194 178.519 213.268 177.551 212.109 174.586C211.826 173.864 211.7 173.091 211.739 172.317C211.778 171.542 211.981 170.785 212.334 170.096C212.758 169.374 213.335 168.753 214.024 168.278C214.713 167.803 215.498 167.485 216.324 167.346C218.516 166.891 220.783 167.501 222.786 168.388C222.859 168.426 222.941 168.44 223.022 168.43C223.102 168.419 223.178 168.384 223.238 168.33C225.153 166.803 227.934 167.466 229.896 168.533C232.019 169.725 233.814 171.424 235.122 173.478C236.455 175.515 237.289 177.838 237.554 180.258C237.796 182.874 237.369 185.508 236.313 187.913C235.257 190.318 233.606 192.414 231.516 194.005C231.136 194.289 231.508 194.937 231.893 194.649C234.003 193.089 235.697 191.034 236.824 188.664C237.952 186.294 238.479 183.682 238.359 181.06C238.239 178.438 237.475 175.886 236.136 173.629C234.796 171.372 232.921 169.48 230.677 168.12C228.323 166.704 225.042 165.943 222.711 167.802L223.163 167.744C221.159 166.857 218.963 166.231 216.754 166.522C214.878 166.769 213.034 167.669 211.958 169.272C211.486 170.007 211.176 170.836 211.049 171.701C210.922 172.566 210.982 173.449 211.224 174.289C211.46 175.12 211.885 175.884 212.467 176.522C213.048 177.16 213.77 177.654 214.575 177.966C215.477 178.326 216.453 178.464 217.42 178.366C218.386 178.269 219.315 177.941 220.128 177.408C220.521 177.138 220.148 176.491 219.751 176.764Z" fill="#2F2E41"/>
<path d="M222.087 71.0113C227.864 71.0113 232.547 66.3263 232.547 60.5471C232.547 54.7678 227.864 50.0828 222.087 50.0828C216.31 50.0828 211.627 54.7678 211.627 60.5471C211.627 66.3263 216.31 71.0113 222.087 71.0113Z" fill="#E4E4E4"/>
<path d="M219.618 64.9398C218.94 64.921 218.096 64.8974 217.446 64.4224C217.252 64.2751 217.093 64.0873 216.98 63.872C216.867 63.6568 216.802 63.4193 216.79 63.1763C216.778 63.0036 216.806 62.8306 216.872 62.6706C216.939 62.5107 217.041 62.3682 217.171 62.2544C217.365 62.1098 217.592 62.016 217.831 61.9815C218.07 61.9471 218.314 61.973 218.541 62.0571L217.987 58.0098L218.394 57.9541L219.045 62.7123L218.705 62.5565C218.512 62.444 218.292 62.3857 218.069 62.3877C217.846 62.3897 217.627 62.4519 217.436 62.5678C217.354 62.642 217.289 62.7342 217.248 62.8372C217.207 62.9402 217.191 63.0514 217.2 63.1619C217.21 63.3428 217.258 63.5194 217.343 63.6797C217.427 63.84 217.545 63.9802 217.688 64.0909C218.194 64.4606 218.867 64.5083 219.629 64.5297L219.618 64.9398Z" fill="#2F2E41"/>
<path d="M215.978 58.3589H213.768V58.7692H215.978V58.3589Z" fill="#2F2E41"/>
<path d="M222.951 58.3589H220.742V58.7692H222.951V58.3589Z" fill="#2F2E41"/>
<path d="M223.057 52.8119C221.787 54.4746 219.769 55.5899 217.637 55.3259C216.647 55.2242 215.715 54.8121 214.974 54.1485C214.233 53.485 213.721 52.6039 213.511 51.6315C213.327 50.6731 213.377 49.6846 213.655 48.7494C213.933 47.8142 214.432 46.9596 215.11 46.2576C216.547 44.7454 218.604 43.9319 220.64 43.6529C222.565 43.4264 224.516 43.609 226.366 44.189C228.216 44.7689 229.922 45.7331 231.374 47.0184C232.838 48.2786 234.007 49.846 234.797 51.6094C235.559 53.3597 235.921 55.2574 235.859 57.1652C235.808 59.0627 235.374 60.9301 234.581 62.6547C233.788 64.3793 232.654 65.9251 231.248 67.1988C230.894 67.5083 230.524 67.7985 230.139 68.0679C229.814 68.2959 229.506 67.7624 229.828 67.5364C231.261 66.489 232.469 65.1627 233.377 63.6372C234.286 62.1116 234.877 60.4182 235.116 58.6585C235.384 56.8951 235.264 55.0945 234.767 53.3818C234.269 51.6691 233.405 50.0852 232.234 48.74C231.052 47.3916 229.613 46.2924 228.001 45.5066C226.39 44.7208 224.638 44.2641 222.848 44.1633C219.249 44.0063 214.751 45.6138 214.077 49.622C213.775 51.4186 214.447 53.307 216.092 54.2064C216.964 54.6449 217.945 54.8147 218.913 54.6942C219.881 54.5736 220.792 54.1682 221.529 53.5294C221.9 53.2261 222.234 52.8811 222.526 52.5012C222.763 52.1908 223.298 52.497 223.057 52.8119Z" fill="#2F2E41"/>
<path d="M222.615 140.049C218.109 140.049 213.703 138.712 209.956 136.207C206.208 133.702 203.288 130.142 201.563 125.977C199.838 121.811 199.387 117.228 200.266 112.806C201.145 108.384 203.316 104.322 206.502 101.134C209.689 97.9456 213.749 95.7745 218.17 94.8948C222.59 94.0152 227.172 94.4666 231.335 96.192C235.499 97.9174 239.058 100.839 241.562 104.588C244.066 108.337 245.402 112.744 245.402 117.253C245.395 123.297 242.993 129.091 238.721 133.365C234.449 137.638 228.657 140.042 222.615 140.049ZM222.615 95.3149C218.278 95.3148 214.038 96.6015 210.432 99.0121C206.826 101.423 204.015 104.849 202.355 108.858C200.696 112.866 200.261 117.277 201.107 121.533C201.954 125.788 204.042 129.697 207.109 132.766C210.176 135.834 214.083 137.923 218.337 138.77C222.591 139.616 227 139.182 231.007 137.521C235.014 135.861 238.439 133.049 240.849 129.441C243.258 125.833 244.545 121.592 244.545 117.253C244.538 111.437 242.225 105.86 238.114 101.748C234.003 97.6349 228.429 95.3215 222.615 95.3149Z" fill="#CACACA"/>
<path d="M222.615 204.217C218.109 204.217 213.703 202.88 209.956 200.375C206.208 197.87 203.288 194.31 201.563 190.144C199.838 185.979 199.387 181.395 200.266 176.973C201.145 172.551 203.316 168.489 206.503 165.301C209.689 162.113 213.75 159.942 218.17 159.063C222.59 158.183 227.172 158.634 231.336 160.36C235.499 162.085 239.058 165.007 241.562 168.756C244.066 172.505 245.402 176.912 245.402 181.421C245.395 187.465 242.993 193.259 238.721 197.532C234.449 201.806 228.657 204.21 222.615 204.217ZM222.615 159.483C218.278 159.483 214.038 160.769 210.432 163.18C206.826 165.59 204.015 169.017 202.355 173.025C200.696 177.034 200.261 181.445 201.107 185.7C201.954 189.956 204.042 193.865 207.109 196.933C210.176 200.001 214.083 202.091 218.337 202.937C222.591 203.784 227 203.349 231.007 201.689C235.014 200.028 238.439 197.217 240.849 193.609C243.258 190.001 244.545 185.76 244.545 181.421C244.538 175.604 242.226 170.028 238.114 165.915C234.003 161.803 228.429 159.489 222.615 159.483Z" fill="#CACACA"/>
<path d="M221.064 130.257C227.041 130.257 231.886 125.411 231.886 119.431C231.886 113.452 227.041 108.605 221.064 108.605C215.088 108.605 210.243 113.452 210.243 119.431C210.243 125.411 215.088 130.257 221.064 130.257Z" fill="#E4E4E4"/>
<path d="M217.463 123.976C216.761 123.956 215.888 123.932 215.216 123.441C215.016 123.288 214.851 123.094 214.734 122.871C214.616 122.649 214.549 122.403 214.537 122.152C214.525 121.973 214.554 121.794 214.622 121.628C214.691 121.463 214.797 121.316 214.932 121.198C215.132 121.048 215.367 120.951 215.614 120.915C215.862 120.88 216.114 120.907 216.349 120.994L215.776 116.806L216.196 116.749L216.87 121.671L216.519 121.51C216.319 121.394 216.092 121.334 215.86 121.336C215.629 121.338 215.403 121.402 215.206 121.522C215.12 121.599 215.054 121.694 215.011 121.801C214.969 121.907 214.952 122.022 214.961 122.137C214.971 122.324 215.022 122.506 215.109 122.672C215.196 122.838 215.318 122.983 215.466 123.098C215.99 123.48 216.686 123.53 217.475 123.552L217.463 123.976Z" fill="#2F2E41"/>
<path d="M213.697 117.167H211.411V117.592H213.697V117.167Z" fill="#2F2E41"/>
<path d="M220.911 117.167H218.625V117.592H220.911V117.167Z" fill="#2F2E41"/>
<path d="M221.609 130.595L229.094 127.689C230.318 127.213 231.549 126.753 232.766 126.261C233.288 126.079 233.768 125.796 234.18 125.428C234.538 125.048 234.782 124.575 234.885 124.063C235.088 122.936 235.153 121.788 235.079 120.645C235.064 119.42 234.964 118.197 234.777 116.985C234.45 114.709 233.683 112.519 232.517 110.536C230.418 107.091 226.801 104.498 222.641 104.705C220.686 104.773 218.816 105.517 217.347 106.81C217.198 106.988 217.031 107.151 216.848 107.294C216.72 107.342 216.582 107.351 216.45 107.321C216.275 107.31 216.1 107.301 215.925 107.295C215.318 107.27 214.71 107.295 214.108 107.372C213.01 107.49 211.969 107.923 211.11 108.617C210.734 108.916 210.42 109.287 210.187 109.707C209.955 110.127 209.807 110.589 209.753 111.067C209.724 111.51 209.797 111.954 209.967 112.364C210.137 112.775 210.398 113.141 210.732 113.434C211.625 114.187 212.899 113.922 213.97 113.865L217.894 113.657L219.882 113.552C220.292 113.53 220.291 114.167 219.882 114.189L214.598 114.469C213.742 114.551 212.883 114.586 212.024 114.573C211.37 114.544 210.747 114.293 210.255 113.862C209.806 113.449 209.472 112.927 209.285 112.347C209.097 111.766 209.064 111.147 209.187 110.55C209.35 109.908 209.645 109.307 210.055 108.786C210.465 108.266 210.979 107.837 211.565 107.528C213.111 106.656 214.957 106.572 216.687 106.701L216.462 106.794C218.419 104.693 221.416 103.806 224.23 104.116C227.201 104.444 229.844 106.102 231.743 108.37C233.859 110.898 235.013 114.05 235.461 117.292C235.695 119.042 235.772 120.809 235.691 122.573C235.694 123.351 235.561 124.123 235.298 124.855C234.998 125.568 234.454 126.15 233.765 126.5C232.975 126.881 232.162 127.215 231.332 127.5L228.574 128.57L223.157 130.674L221.778 131.209C221.396 131.358 221.231 130.742 221.609 130.595Z" fill="#2F2E41"/>
<path d="M230.089 105.664C230.089 105.013 230.282 104.377 230.644 103.836C231.005 103.295 231.519 102.873 232.12 102.624C232.721 102.375 233.382 102.31 234.02 102.437C234.658 102.564 235.244 102.877 235.704 103.337C236.164 103.798 236.477 104.384 236.604 105.022C236.731 105.66 236.666 106.322 236.417 106.923C236.168 107.524 235.746 108.038 235.206 108.4C234.665 108.761 234.029 108.954 233.378 108.954C232.506 108.953 231.67 108.606 231.054 107.99C230.437 107.373 230.09 106.536 230.089 105.664ZM230.726 105.664C230.726 106.189 230.881 106.702 231.173 107.138C231.464 107.575 231.879 107.915 232.363 108.115C232.848 108.316 233.381 108.369 233.896 108.266C234.41 108.164 234.883 107.911 235.254 107.54C235.625 107.169 235.877 106.696 235.98 106.182C236.082 105.667 236.03 105.133 235.829 104.649C235.628 104.164 235.288 103.749 234.852 103.458C234.416 103.166 233.903 103.011 233.378 103.011C232.675 103.011 232.001 103.291 231.504 103.789C231.006 104.286 230.727 104.961 230.726 105.664Z" fill="#2F2E41"/>
<path d="M356.093 66.6868H281.203C280.268 66.6868 279.37 66.315 278.709 65.6532C278.047 64.9914 277.676 64.0939 277.676 63.158C277.676 62.2221 278.047 61.3245 278.709 60.6627C279.37 60.0009 280.268 59.6292 281.203 59.6292H356.093C356.556 59.6292 357.015 59.7204 357.443 59.8978C357.87 60.0751 358.259 60.335 358.587 60.6627C358.914 60.9904 359.174 61.3794 359.352 61.8075C359.529 62.2357 359.62 62.6946 359.62 63.158C359.62 63.6214 359.529 64.0803 359.352 64.5084C359.174 64.9365 358.914 65.3255 358.587 65.6532C358.259 65.9809 357.87 66.2408 357.443 66.4182C357.015 66.5955 356.556 66.6868 356.093 66.6868Z" fill="#E4E4E4"/>
<path d="M331.944 54.6075H281.203C280.268 54.6075 279.37 54.2357 278.709 53.5739C278.047 52.9121 277.676 52.0145 277.676 51.0786C277.676 50.1427 278.047 49.2452 278.709 48.5834C279.37 47.9216 280.268 47.5498 281.203 47.5498H331.944C332.407 47.5498 332.865 47.6411 333.293 47.8184C333.721 47.9958 334.11 48.2557 334.438 48.5834C334.765 48.9111 335.025 49.3001 335.202 49.7282C335.38 50.1563 335.471 50.6152 335.471 51.0786C335.471 51.542 335.38 52.0009 335.202 52.4291C335.025 52.8572 334.765 53.2462 334.438 53.5739C334.11 53.9016 333.721 54.1615 333.293 54.3388C332.865 54.5162 332.407 54.6075 331.944 54.6075Z" fill="#E4E4E4"/>
<path d="M356.093 126.821H281.203C280.268 126.821 279.37 126.45 278.709 125.788C278.047 125.126 277.676 124.228 277.676 123.293C277.676 122.357 278.047 121.459 278.709 120.797C279.37 120.135 280.268 119.764 281.203 119.764H356.093C357.028 119.764 357.925 120.135 358.587 120.797C359.248 121.459 359.62 122.357 359.62 123.293C359.62 124.228 359.248 125.126 358.587 125.788C357.925 126.45 357.028 126.821 356.093 126.821Z" fill="#E4E4E4"/>
<path d="M331.944 114.742H281.203C280.268 114.741 279.372 114.369 278.711 113.707C278.051 113.045 277.68 112.148 277.68 111.213C277.68 110.278 278.051 109.381 278.711 108.719C279.372 108.058 280.268 107.685 281.203 107.684H331.944C332.879 107.684 333.776 108.056 334.438 108.718C335.099 109.38 335.471 110.277 335.471 111.213C335.471 112.149 335.099 113.047 334.438 113.708C333.776 114.37 332.879 114.742 331.944 114.742Z" fill="#E4E4E4"/>
<path d="M356.093 190.989H281.203C280.268 190.989 279.37 190.618 278.709 189.956C278.047 189.294 277.676 188.396 277.676 187.46C277.676 186.525 278.047 185.627 278.709 184.965C279.37 184.303 280.268 183.932 281.203 183.932H356.093C357.028 183.932 357.925 184.303 358.587 184.965C359.248 185.627 359.62 186.525 359.62 187.46C359.62 188.396 359.248 189.294 358.587 189.956C357.925 190.618 357.028 190.989 356.093 190.989Z" fill="#E4E4E4"/>
<path d="M331.944 178.91H281.203C280.268 178.91 279.37 178.538 278.709 177.876C278.047 177.215 277.676 176.317 277.676 175.381C277.676 174.445 278.047 173.548 278.709 172.886C279.37 172.224 280.268 171.852 281.203 171.852H331.944C332.879 171.852 333.776 172.224 334.438 172.886C335.099 173.548 335.471 174.445 335.471 175.381C335.471 176.317 335.099 177.215 334.438 177.876C333.776 178.538 332.879 178.91 331.944 178.91Z" fill="#E4E4E4"/>
<path d="M163.822 269H0.428854C0.315115 269 0.206034 268.955 0.125608 268.874C0.0451824 268.794 0 268.685 0 268.571C0 268.457 0.0451824 268.348 0.125608 268.268C0.206034 268.187 0.315115 268.142 0.428854 268.142H163.822C163.936 268.142 164.045 268.187 164.126 268.268C164.206 268.348 164.251 268.457 164.251 268.571C164.251 268.685 164.206 268.794 164.126 268.874C164.045 268.955 163.936 269 163.822 269Z" fill="#3F3D56"/>
</g>
<defs>
<clipPath id="clip0_482_113">
<rect width="373" height="269" fill="white"/>
</clipPath>
</defs>
</svg>
