<svg width="41" height="41" viewBox="0 0 41 41" fill="none" xmlns="http://www.w3.org/2000/svg">
<path d="M23.8792 3.43097C27.2125 3.43097 28.8792 5.1143 28.8792 8.48097V20.231C28.8792 23.5476 26.5292 24.831 23.6459 23.0976L21.4459 21.7643C20.9459 21.4643 20.1459 21.4643 19.6459 21.7643L17.4459 23.0976C14.5625 24.831 12.2125 23.5476 12.2125 20.231V8.48097C12.2125 5.1143 13.8792 3.43097 17.2125 3.43097H23.8792Z" stroke="black" stroke-width="3" stroke-linecap="round" stroke-linejoin="round"/>
<path d="M11.9126 8.41429C6.22927 9.36429 3.87927 12.8643 3.87927 19.931V24.981C3.87927 33.3976 7.21261 36.7643 15.5459 36.7643H25.5459C33.8793 36.7643 37.2126 33.3976 37.2126 24.981V19.931C37.2126 12.7476 34.7793 9.23095 28.8793 8.36429" stroke="black" stroke-width="3" stroke-linecap="round" stroke-linejoin="round"/>
</svg>
