<svg width="1512" height="250" viewBox="0 0 1512 250" fill="none" xmlns="http://www.w3.org/2000/svg">
<path d="M186.5 22.5C64.5 36.5575 -1.5 68.4998 -1.5 68.4998L-14 232.701L1513 248.701C1513 248.701 1626.5 106.5 1513 52.5C1399.5 -1.5 1252.5 93.9025 787 35.2011C321.5 -23.5002 308.5 8.44257 186.5 22.5Z" fill="#E8E8E8" stroke="#E8E8E8"/>
<path d="M205.065 59.8893C43.517 75.0508 1.50457 87.5908 1.50457 87.5908L-14 235.964L1513.45 249C1513.45 249 1578.47 137.698 1562.47 113.255C1522.99 52.9638 1415.95 62.9427 1324.9 75.0508C1226.87 88.0868 1165.85 113.255 1081.82 113.255C997.799 113.255 985.795 111.396 764.23 75.0508C542.664 38.7056 366.612 44.7278 205.065 59.8893Z" fill="#F4F4F4"/>
<path d="M326.455 135.181C126.981 163.702 -5.00158 122.386 -5.00158 122.386L-5.00159 249H1509.8C1509.8 249 1535.79 167.167 1519.8 151.174C1480.34 111.724 1379.34 127.258 1288.33 135.181C1190.34 143.71 1154.84 151.174 1070.86 151.174C986.867 151.174 941.373 144.777 799.392 122.386C657.411 99.9951 525.928 106.659 326.455 135.181Z" fill="#F9F9F9"/>
</svg>
