<svg width="41" height="41" viewBox="0 0 41 41" fill="none" xmlns="http://www.w3.org/2000/svg">
<path d="M15.5459 36.7643H25.5459C33.8793 36.7643 37.2126 33.431 37.2126 25.0976V15.0976C37.2126 6.7643 33.8793 3.43097 25.5459 3.43097H15.5459C7.21261 3.43097 3.87927 6.7643 3.87927 15.0976V25.0976C3.87927 33.431 7.21261 36.7643 15.5459 36.7643Z" stroke="black" stroke-width="3" stroke-linecap="round" stroke-linejoin="round"/>
<path d="M20.5459 13.5976V29.5309M31.1793 25.5476V12.7309C31.1793 11.4476 30.1459 10.5143 28.8793 10.6143H28.8126C26.5793 10.7976 23.1959 11.9476 21.2959 13.131L21.1126 13.2476C20.8126 13.4309 20.2959 13.4309 19.9793 13.2476L19.7126 13.081C17.8293 11.8976 14.4459 10.781 12.2126 10.5976C10.9459 10.4976 9.9126 11.4476 9.9126 12.7143V25.5476C9.9126 26.5643 10.7459 27.531 11.7626 27.6476L12.0626 27.6976C14.3626 27.9976 17.9293 29.181 19.9626 30.2976L20.0126 30.3143C20.2959 30.4809 20.7626 30.4809 21.0293 30.3143C23.0626 29.1809 26.6459 28.0143 28.9626 27.6976L29.3126 27.6476C30.3459 27.531 31.1793 26.581 31.1793 25.5476Z" stroke="black" stroke-width="3" stroke-linecap="round" stroke-linejoin="round"/>
</svg>
