<svg width="49" height="49" viewBox="0 0 49 49" fill="none" xmlns="http://www.w3.org/2000/svg">
<path d="M23.5008 24.4576H11.4171M11.0746 26.0416L9.07823 32.0052C7.98482 35.2713 7.43812 36.9044 7.83046 37.91C8.17115 38.7834 8.90292 39.4455 9.80588 39.6976C10.8457 39.9877 12.4161 39.2809 15.5571 37.8676L35.6934 28.8062C38.7593 27.4265 40.2922 26.7368 40.7659 25.7785C41.1776 24.946 41.1776 23.969 40.7659 23.1365C40.2922 22.1784 38.7593 21.4886 35.6934 20.1089L15.5223 11.032C12.3909 9.62284 10.8251 8.91825 9.78639 9.20729C8.88428 9.4583 8.1526 10.1187 7.81071 10.9904C7.41701 11.9942 7.95788 13.6237 9.03962 16.8828L11.0785 23.0256C11.2643 23.5854 11.3572 23.8653 11.3938 24.1514C11.4264 24.4056 11.426 24.6627 11.3929 24.9166C11.3555 25.2027 11.2618 25.4823 11.0746 26.0416Z" stroke="#FFC700" stroke-width="3" stroke-linecap="round" stroke-linejoin="round"/>
</svg>
