<svg width="41" height="41" viewBox="0 0 41 41" fill="none" xmlns="http://www.w3.org/2000/svg">
<path d="M34.8626 36.7643C34.8626 30.3143 28.4459 25.0976 20.5459 25.0976C12.6459 25.0976 6.22925 30.3143 6.22925 36.7643M20.5459 20.0976C22.7561 20.0976 24.8757 19.2197 26.4385 17.6569C28.0013 16.0941 28.8792 13.9744 28.8792 11.7643C28.8792 9.55417 28.0013 7.43455 26.4385 5.87175C24.8757 4.30894 22.7561 3.43097 20.5459 3.43097C18.3358 3.43097 16.2162 4.30894 14.6534 5.87175C13.0906 7.43455 12.2126 9.55417 12.2126 11.7643C12.2126 13.9744 13.0906 16.0941 14.6534 17.6569C16.2162 19.2197 18.3358 20.0976 20.5459 20.0976Z" stroke="#404040" stroke-width="3" stroke-linecap="round" stroke-linejoin="round"/>
</svg>
